<mxfile host="app.diagrams.net" modified="2024-04-01T23:21:24.023Z" agent="Mozilla/5.0 (Windows NT 10.0; Win64; x64) AppleWebKit/537.36 (KHTML, like Gecko) Chrome/122.0.0.0 Safari/537.36 Edg/122.0.0.0" etag="8KAZtu0AwIAL4-QfwGlU" version="24.1.0" type="device">
  <diagram name="Σελίδα-1" id="jmt2cwGtNzTrue3MdXKK">
    <mxGraphModel dx="1670" dy="948" grid="1" gridSize="10" guides="1" tooltips="1" connect="1" arrows="1" fold="1" page="1" pageScale="1" pageWidth="827" pageHeight="1169" math="0" shadow="0">
      <root>
        <mxCell id="0" />
        <mxCell id="1" parent="0" />
        <mxCell id="wo7qAl4Wys5p-9roEDO0-1" value="&lt;font color=&quot;#941100&quot; face=&quot;Times New Roman&quot;&gt;&lt;b&gt;&lt;i&gt;&lt;u&gt;&lt;font style=&quot;font-size: 27px;&quot;&gt;Collaboration Diagram &lt;/font&gt;&lt;/u&gt;&lt;/i&gt;&lt;/b&gt;&lt;/font&gt;" style="rounded=0;whiteSpace=wrap;html=1;fillColor=#f5f5f5;gradientColor=#b3b3b3;strokeColor=#666666;" vertex="1" parent="1">
          <mxGeometry x="250" y="10" width="380" height="50" as="geometry" />
        </mxCell>
        <mxCell id="wo7qAl4Wys5p-9roEDO0-13" style="rounded=0;orthogonalLoop=1;jettySize=auto;html=1;exitX=0.5;exitY=0.5;exitDx=0;exitDy=0;exitPerimeter=0;entryX=0;entryY=0.5;entryDx=0;entryDy=0;endArrow=none;endFill=0;" edge="1" parent="1" source="wo7qAl4Wys5p-9roEDO0-2" target="wo7qAl4Wys5p-9roEDO0-3">
          <mxGeometry relative="1" as="geometry" />
        </mxCell>
        <mxCell id="wo7qAl4Wys5p-9roEDO0-44" style="edgeStyle=none;rounded=0;orthogonalLoop=1;jettySize=auto;html=1;entryX=0;entryY=0.5;entryDx=0;entryDy=0;endArrow=none;endFill=0;" edge="1" parent="1" target="wo7qAl4Wys5p-9roEDO0-8">
          <mxGeometry relative="1" as="geometry">
            <mxPoint x="170" y="450" as="sourcePoint" />
            <Array as="points">
              <mxPoint x="220" y="590" />
            </Array>
          </mxGeometry>
        </mxCell>
        <mxCell id="wo7qAl4Wys5p-9roEDO0-2" value="Patient" style="shape=umlActor;verticalLabelPosition=bottom;verticalAlign=top;html=1;outlineConnect=0;" vertex="1" parent="1">
          <mxGeometry x="130" y="370" width="40" height="70" as="geometry" />
        </mxCell>
        <mxCell id="wo7qAl4Wys5p-9roEDO0-3" value="Appointment" style="rounded=1;whiteSpace=wrap;html=1;" vertex="1" parent="1">
          <mxGeometry x="400" y="375" width="120" height="60" as="geometry" />
        </mxCell>
        <mxCell id="wo7qAl4Wys5p-9roEDO0-30" value="" style="edgeStyle=none;rounded=0;orthogonalLoop=1;jettySize=auto;html=1;endArrow=none;endFill=0;" edge="1" parent="1" source="wo7qAl4Wys5p-9roEDO0-4" target="wo7qAl4Wys5p-9roEDO0-3">
          <mxGeometry relative="1" as="geometry" />
        </mxCell>
        <mxCell id="wo7qAl4Wys5p-9roEDO0-43" style="edgeStyle=none;rounded=0;orthogonalLoop=1;jettySize=auto;html=1;entryX=1;entryY=0.5;entryDx=0;entryDy=0;endArrow=none;endFill=0;" edge="1" parent="1" target="wo7qAl4Wys5p-9roEDO0-8">
          <mxGeometry relative="1" as="geometry">
            <mxPoint x="941" y="460" as="sourcePoint" />
            <Array as="points">
              <mxPoint x="941" y="590" />
              <mxPoint x="860" y="590" />
            </Array>
          </mxGeometry>
        </mxCell>
        <mxCell id="wo7qAl4Wys5p-9roEDO0-4" value="Doctor" style="shape=umlActor;verticalLabelPosition=bottom;verticalAlign=top;html=1;outlineConnect=0;" vertex="1" parent="1">
          <mxGeometry x="940.67" y="370" width="40" height="70" as="geometry" />
        </mxCell>
        <mxCell id="wo7qAl4Wys5p-9roEDO0-29" value="" style="edgeStyle=none;rounded=0;orthogonalLoop=1;jettySize=auto;html=1;entryX=0.5;entryY=0;entryDx=0;entryDy=0;endArrow=none;endFill=0;" edge="1" parent="1" source="wo7qAl4Wys5p-9roEDO0-5" target="wo7qAl4Wys5p-9roEDO0-3">
          <mxGeometry relative="1" as="geometry">
            <mxPoint x="460" y="245" as="targetPoint" />
          </mxGeometry>
        </mxCell>
        <mxCell id="wo7qAl4Wys5p-9roEDO0-34" value="" style="edgeStyle=none;rounded=0;orthogonalLoop=1;jettySize=auto;html=1;entryX=1;entryY=0.5;entryDx=0;entryDy=0;endArrow=none;endFill=0;" edge="1" parent="1" target="wo7qAl4Wys5p-9roEDO0-7">
          <mxGeometry relative="1" as="geometry">
            <mxPoint x="510" y="124.83870967741939" as="sourcePoint" />
            <mxPoint x="1100" y="600" as="targetPoint" />
            <Array as="points">
              <mxPoint x="1110" y="120" />
              <mxPoint x="1110" y="720" />
            </Array>
          </mxGeometry>
        </mxCell>
        <mxCell id="wo7qAl4Wys5p-9roEDO0-5" value="Administrative Staff" style="shape=umlActor;verticalLabelPosition=bottom;verticalAlign=top;html=1;outlineConnect=0;" vertex="1" parent="1">
          <mxGeometry x="440" y="90" width="40" height="70" as="geometry" />
        </mxCell>
        <mxCell id="wo7qAl4Wys5p-9roEDO0-7" value="Bill" style="rounded=1;whiteSpace=wrap;html=1;" vertex="1" parent="1">
          <mxGeometry x="920" y="690" width="120" height="60" as="geometry" />
        </mxCell>
        <mxCell id="wo7qAl4Wys5p-9roEDO0-8" value="Medical Record" style="rounded=1;whiteSpace=wrap;html=1;" vertex="1" parent="1">
          <mxGeometry x="414" y="560" width="120" height="60" as="geometry" />
        </mxCell>
        <mxCell id="wo7qAl4Wys5p-9roEDO0-9" value="" style="endArrow=none;html=1;rounded=0;" edge="1" parent="1">
          <mxGeometry width="50" height="50" relative="1" as="geometry">
            <mxPoint x="110" y="430" as="sourcePoint" />
            <mxPoint x="120" y="390" as="targetPoint" />
            <Array as="points">
              <mxPoint x="120" y="430" />
              <mxPoint x="110" y="430" />
              <mxPoint x="70" y="430" />
              <mxPoint x="70" y="390" />
            </Array>
          </mxGeometry>
        </mxCell>
        <mxCell id="wo7qAl4Wys5p-9roEDO0-10" value="Log in" style="edgeLabel;html=1;align=center;verticalAlign=middle;resizable=0;points=[];" vertex="1" connectable="0" parent="wo7qAl4Wys5p-9roEDO0-9">
          <mxGeometry x="0.1467" y="1" relative="1" as="geometry">
            <mxPoint x="-39" y="-4" as="offset" />
          </mxGeometry>
        </mxCell>
        <mxCell id="wo7qAl4Wys5p-9roEDO0-12" value="" style="endArrow=classic;html=1;rounded=0;" edge="1" parent="1">
          <mxGeometry width="50" height="50" relative="1" as="geometry">
            <mxPoint x="50" y="380" as="sourcePoint" />
            <mxPoint x="50" y="450" as="targetPoint" />
          </mxGeometry>
        </mxCell>
        <mxCell id="wo7qAl4Wys5p-9roEDO0-16" value="" style="endArrow=classic;html=1;rounded=0;" edge="1" parent="1">
          <mxGeometry width="50" height="50" relative="1" as="geometry">
            <mxPoint x="210" y="330" as="sourcePoint" />
            <mxPoint x="310" y="330" as="targetPoint" />
          </mxGeometry>
        </mxCell>
        <mxCell id="wo7qAl4Wys5p-9roEDO0-23" value="Book Appointment" style="edgeLabel;html=1;align=center;verticalAlign=middle;resizable=0;points=[];" vertex="1" connectable="0" parent="wo7qAl4Wys5p-9roEDO0-16">
          <mxGeometry x="-0.4327" relative="1" as="geometry">
            <mxPoint x="21" y="-20" as="offset" />
          </mxGeometry>
        </mxCell>
        <mxCell id="wo7qAl4Wys5p-9roEDO0-17" value="" style="endArrow=none;html=1;rounded=0;" edge="1" parent="1">
          <mxGeometry width="50" height="50" relative="1" as="geometry">
            <mxPoint x="420" y="150" as="sourcePoint" />
            <mxPoint x="430" y="110" as="targetPoint" />
            <Array as="points">
              <mxPoint x="430" y="150" />
              <mxPoint x="420" y="150" />
              <mxPoint x="380" y="150" />
              <mxPoint x="380" y="110" />
            </Array>
          </mxGeometry>
        </mxCell>
        <mxCell id="wo7qAl4Wys5p-9roEDO0-18" value="Log in" style="edgeLabel;html=1;align=center;verticalAlign=middle;resizable=0;points=[];" vertex="1" connectable="0" parent="wo7qAl4Wys5p-9roEDO0-17">
          <mxGeometry x="0.1467" y="1" relative="1" as="geometry">
            <mxPoint x="-39" y="-4" as="offset" />
          </mxGeometry>
        </mxCell>
        <mxCell id="wo7qAl4Wys5p-9roEDO0-19" value="" style="endArrow=classic;html=1;rounded=0;" edge="1" parent="1">
          <mxGeometry width="50" height="50" relative="1" as="geometry">
            <mxPoint x="360" y="100" as="sourcePoint" />
            <mxPoint x="360" y="170" as="targetPoint" />
          </mxGeometry>
        </mxCell>
        <mxCell id="wo7qAl4Wys5p-9roEDO0-20" value="" style="endArrow=none;html=1;rounded=0;" edge="1" parent="1">
          <mxGeometry width="50" height="50" relative="1" as="geometry">
            <mxPoint x="1030.67" y="425" as="sourcePoint" />
            <mxPoint x="1010.67" y="385" as="targetPoint" />
            <Array as="points">
              <mxPoint x="1040.67" y="425" />
              <mxPoint x="1010.67" y="425" />
              <mxPoint x="1060.67" y="425" />
              <mxPoint x="1060.67" y="385" />
            </Array>
          </mxGeometry>
        </mxCell>
        <mxCell id="wo7qAl4Wys5p-9roEDO0-21" value="Log in" style="edgeLabel;html=1;align=center;verticalAlign=middle;resizable=0;points=[];" vertex="1" connectable="0" parent="wo7qAl4Wys5p-9roEDO0-20">
          <mxGeometry x="0.1467" y="1" relative="1" as="geometry">
            <mxPoint x="41" y="-19" as="offset" />
          </mxGeometry>
        </mxCell>
        <mxCell id="wo7qAl4Wys5p-9roEDO0-22" value="" style="endArrow=classic;html=1;rounded=0;" edge="1" parent="1">
          <mxGeometry width="50" height="50" relative="1" as="geometry">
            <mxPoint x="1080.67" y="370" as="sourcePoint" />
            <mxPoint x="1080.67" y="440" as="targetPoint" />
          </mxGeometry>
        </mxCell>
        <mxCell id="wo7qAl4Wys5p-9roEDO0-24" value="" style="endArrow=classic;html=1;rounded=0;" edge="1" parent="1">
          <mxGeometry width="50" height="50" relative="1" as="geometry">
            <mxPoint x="210" y="360" as="sourcePoint" />
            <mxPoint x="310" y="360" as="targetPoint" />
          </mxGeometry>
        </mxCell>
        <mxCell id="wo7qAl4Wys5p-9roEDO0-25" value="Cancel Appointment" style="edgeLabel;html=1;align=center;verticalAlign=middle;resizable=0;points=[];" vertex="1" connectable="0" parent="wo7qAl4Wys5p-9roEDO0-24">
          <mxGeometry x="-0.4327" relative="1" as="geometry">
            <mxPoint x="21" y="-15" as="offset" />
          </mxGeometry>
        </mxCell>
        <mxCell id="wo7qAl4Wys5p-9roEDO0-26" value="" style="endArrow=classic;html=1;rounded=0;" edge="1" parent="1">
          <mxGeometry width="50" height="50" relative="1" as="geometry">
            <mxPoint x="310" y="440" as="sourcePoint" />
            <mxPoint x="200" y="440" as="targetPoint" />
          </mxGeometry>
        </mxCell>
        <mxCell id="wo7qAl4Wys5p-9roEDO0-27" value="View Appointment" style="edgeLabel;html=1;align=center;verticalAlign=middle;resizable=0;points=[];" vertex="1" connectable="0" parent="wo7qAl4Wys5p-9roEDO0-26">
          <mxGeometry x="-0.4327" relative="1" as="geometry">
            <mxPoint x="-19" y="-15" as="offset" />
          </mxGeometry>
        </mxCell>
        <mxCell id="wo7qAl4Wys5p-9roEDO0-31" value="" style="endArrow=classic;html=1;rounded=0;" edge="1" parent="1">
          <mxGeometry width="50" height="50" relative="1" as="geometry">
            <mxPoint x="570" y="439.17" as="sourcePoint" />
            <mxPoint x="690" y="439.17" as="targetPoint" />
          </mxGeometry>
        </mxCell>
        <mxCell id="wo7qAl4Wys5p-9roEDO0-32" value="View Appointment" style="edgeLabel;html=1;align=center;verticalAlign=middle;resizable=0;points=[];" vertex="1" connectable="0" parent="wo7qAl4Wys5p-9roEDO0-31">
          <mxGeometry x="-0.4327" relative="1" as="geometry">
            <mxPoint x="16" y="-20" as="offset" />
          </mxGeometry>
        </mxCell>
        <mxCell id="wo7qAl4Wys5p-9roEDO0-35" value="" style="endArrow=none;html=1;rounded=0;exitX=0;exitY=0.5;exitDx=0;exitDy=0;" edge="1" parent="1" source="wo7qAl4Wys5p-9roEDO0-7">
          <mxGeometry width="50" height="50" relative="1" as="geometry">
            <mxPoint x="149" y="750" as="sourcePoint" />
            <mxPoint x="149" y="470" as="targetPoint" />
            <Array as="points">
              <mxPoint x="149" y="720" />
            </Array>
          </mxGeometry>
        </mxCell>
        <mxCell id="wo7qAl4Wys5p-9roEDO0-36" value="" style="endArrow=classic;html=1;rounded=0;" edge="1" parent="1">
          <mxGeometry width="50" height="50" relative="1" as="geometry">
            <mxPoint x="210" y="390" as="sourcePoint" />
            <mxPoint x="310" y="390" as="targetPoint" />
          </mxGeometry>
        </mxCell>
        <mxCell id="wo7qAl4Wys5p-9roEDO0-37" value="Change Appointment" style="edgeLabel;html=1;align=center;verticalAlign=middle;resizable=0;points=[];" vertex="1" connectable="0" parent="wo7qAl4Wys5p-9roEDO0-36">
          <mxGeometry x="-0.4327" relative="1" as="geometry">
            <mxPoint x="21" y="-15" as="offset" />
          </mxGeometry>
        </mxCell>
        <mxCell id="wo7qAl4Wys5p-9roEDO0-38" value="" style="endArrow=classic;html=1;rounded=0;" edge="1" parent="1">
          <mxGeometry width="50" height="50" relative="1" as="geometry">
            <mxPoint x="180" y="750" as="sourcePoint" />
            <mxPoint x="280" y="750" as="targetPoint" />
          </mxGeometry>
        </mxCell>
        <mxCell id="wo7qAl4Wys5p-9roEDO0-39" value="Pay Bill" style="edgeLabel;html=1;align=center;verticalAlign=middle;resizable=0;points=[];" vertex="1" connectable="0" parent="wo7qAl4Wys5p-9roEDO0-38">
          <mxGeometry x="-0.4327" relative="1" as="geometry">
            <mxPoint x="21" y="-15" as="offset" />
          </mxGeometry>
        </mxCell>
        <mxCell id="wo7qAl4Wys5p-9roEDO0-41" value="" style="endArrow=classic;html=1;rounded=0;" edge="1" parent="1">
          <mxGeometry width="50" height="50" relative="1" as="geometry">
            <mxPoint x="1130" y="530" as="sourcePoint" />
            <mxPoint x="1130" y="400" as="targetPoint" />
          </mxGeometry>
        </mxCell>
        <mxCell id="wo7qAl4Wys5p-9roEDO0-42" value="Receive Bill" style="edgeLabel;html=1;align=center;verticalAlign=middle;resizable=0;points=[];" vertex="1" connectable="0" parent="wo7qAl4Wys5p-9roEDO0-41">
          <mxGeometry x="-0.4327" relative="1" as="geometry">
            <mxPoint x="40" y="-34" as="offset" />
          </mxGeometry>
        </mxCell>
        <mxCell id="wo7qAl4Wys5p-9roEDO0-45" value="" style="endArrow=classic;html=1;rounded=0;" edge="1" parent="1">
          <mxGeometry width="50" height="50" relative="1" as="geometry">
            <mxPoint x="630" y="620" as="sourcePoint" />
            <mxPoint x="750" y="620" as="targetPoint" />
          </mxGeometry>
        </mxCell>
        <mxCell id="wo7qAl4Wys5p-9roEDO0-46" value="View Medical Record" style="edgeLabel;html=1;align=center;verticalAlign=middle;resizable=0;points=[];" vertex="1" connectable="0" parent="wo7qAl4Wys5p-9roEDO0-45">
          <mxGeometry x="-0.4327" relative="1" as="geometry">
            <mxPoint x="27" y="-10" as="offset" />
          </mxGeometry>
        </mxCell>
        <mxCell id="wo7qAl4Wys5p-9roEDO0-47" value="" style="endArrow=classic;html=1;rounded=0;" edge="1" parent="1">
          <mxGeometry width="50" height="50" relative="1" as="geometry">
            <mxPoint x="490" y="310" as="sourcePoint" />
            <mxPoint x="490" y="200" as="targetPoint" />
          </mxGeometry>
        </mxCell>
        <mxCell id="wo7qAl4Wys5p-9roEDO0-48" value="View Appointment" style="edgeLabel;html=1;align=center;verticalAlign=middle;resizable=0;points=[];" vertex="1" connectable="0" parent="wo7qAl4Wys5p-9roEDO0-47">
          <mxGeometry x="-0.4327" relative="1" as="geometry">
            <mxPoint x="70" y="-29" as="offset" />
          </mxGeometry>
        </mxCell>
        <mxCell id="wo7qAl4Wys5p-9roEDO0-49" value="" style="endArrow=classic;html=1;rounded=0;" edge="1" parent="1">
          <mxGeometry width="50" height="50" relative="1" as="geometry">
            <mxPoint x="740" y="570" as="sourcePoint" />
            <mxPoint x="630" y="570" as="targetPoint" />
          </mxGeometry>
        </mxCell>
        <mxCell id="wo7qAl4Wys5p-9roEDO0-50" value="Update Medical Record" style="edgeLabel;html=1;align=center;verticalAlign=middle;resizable=0;points=[];" vertex="1" connectable="0" parent="wo7qAl4Wys5p-9roEDO0-49">
          <mxGeometry x="-0.4327" relative="1" as="geometry">
            <mxPoint x="-9" y="-20" as="offset" />
          </mxGeometry>
        </mxCell>
        <mxCell id="wo7qAl4Wys5p-9roEDO0-51" value="" style="endArrow=classic;html=1;rounded=0;" edge="1" parent="1">
          <mxGeometry width="50" height="50" relative="1" as="geometry">
            <mxPoint x="380" y="618.82" as="sourcePoint" />
            <mxPoint x="270" y="618.82" as="targetPoint" />
          </mxGeometry>
        </mxCell>
        <mxCell id="wo7qAl4Wys5p-9roEDO0-52" value="View Medical Record" style="edgeLabel;html=1;align=center;verticalAlign=middle;resizable=0;points=[];" vertex="1" connectable="0" parent="wo7qAl4Wys5p-9roEDO0-51">
          <mxGeometry x="-0.4327" relative="1" as="geometry">
            <mxPoint x="-19" y="-15" as="offset" />
          </mxGeometry>
        </mxCell>
        <mxCell id="wo7qAl4Wys5p-9roEDO0-53" value="Exam Patient" style="rounded=1;whiteSpace=wrap;html=1;" vertex="1" parent="1">
          <mxGeometry x="760.67" y="560" width="120" height="60" as="geometry" />
        </mxCell>
        <mxCell id="wo7qAl4Wys5p-9roEDO0-55" value="Provide Prescription" style="rounded=1;whiteSpace=wrap;html=1;" vertex="1" parent="1">
          <mxGeometry x="414" y="470" width="120" height="60" as="geometry" />
        </mxCell>
        <mxCell id="wo7qAl4Wys5p-9roEDO0-57" value="Perform more medical exams" style="rounded=1;whiteSpace=wrap;html=1;" vertex="1" parent="1">
          <mxGeometry x="414" y="650" width="120" height="60" as="geometry" />
        </mxCell>
        <mxCell id="wo7qAl4Wys5p-9roEDO0-66" value="" style="edgeStyle=none;rounded=0;orthogonalLoop=1;jettySize=auto;html=1;endArrow=none;endFill=0;entryX=1;entryY=0.5;entryDx=0;entryDy=0;" edge="1" parent="1" target="wo7qAl4Wys5p-9roEDO0-55">
          <mxGeometry relative="1" as="geometry">
            <mxPoint x="940" y="420" as="sourcePoint" />
            <mxPoint x="530" y="415" as="targetPoint" />
            <Array as="points">
              <mxPoint x="760" y="500" />
            </Array>
          </mxGeometry>
        </mxCell>
        <mxCell id="wo7qAl4Wys5p-9roEDO0-67" value="" style="edgeStyle=none;rounded=0;orthogonalLoop=1;jettySize=auto;html=1;endArrow=none;endFill=0;exitX=0;exitY=0.5;exitDx=0;exitDy=0;entryX=1;entryY=1;entryDx=0;entryDy=0;entryPerimeter=0;" edge="1" parent="1" source="wo7qAl4Wys5p-9roEDO0-55" target="wo7qAl4Wys5p-9roEDO0-2">
          <mxGeometry relative="1" as="geometry">
            <mxPoint x="400" y="499.58" as="sourcePoint" />
            <mxPoint x="230" y="500" as="targetPoint" />
            <Array as="points">
              <mxPoint x="260" y="500" />
            </Array>
          </mxGeometry>
        </mxCell>
        <mxCell id="wo7qAl4Wys5p-9roEDO0-68" value="" style="endArrow=classic;html=1;rounded=0;" edge="1" parent="1">
          <mxGeometry width="50" height="50" relative="1" as="geometry">
            <mxPoint x="690" y="490" as="sourcePoint" />
            <mxPoint x="580" y="490" as="targetPoint" />
          </mxGeometry>
        </mxCell>
        <mxCell id="wo7qAl4Wys5p-9roEDO0-69" value="Write prescription" style="edgeLabel;html=1;align=center;verticalAlign=middle;resizable=0;points=[];" vertex="1" connectable="0" parent="wo7qAl4Wys5p-9roEDO0-68">
          <mxGeometry x="-0.4327" relative="1" as="geometry">
            <mxPoint x="-19" y="-20" as="offset" />
          </mxGeometry>
        </mxCell>
        <mxCell id="wo7qAl4Wys5p-9roEDO0-70" value="" style="endArrow=classic;html=1;rounded=0;" edge="1" parent="1">
          <mxGeometry width="50" height="50" relative="1" as="geometry">
            <mxPoint x="400" y="490" as="sourcePoint" />
            <mxPoint x="290" y="490" as="targetPoint" />
          </mxGeometry>
        </mxCell>
        <mxCell id="wo7qAl4Wys5p-9roEDO0-71" value="Receive prescription" style="edgeLabel;html=1;align=center;verticalAlign=middle;resizable=0;points=[];" vertex="1" connectable="0" parent="wo7qAl4Wys5p-9roEDO0-70">
          <mxGeometry x="-0.4327" relative="1" as="geometry">
            <mxPoint x="-19" y="-20" as="offset" />
          </mxGeometry>
        </mxCell>
        <mxCell id="wo7qAl4Wys5p-9roEDO0-72" value="" style="edgeStyle=none;rounded=0;orthogonalLoop=1;jettySize=auto;html=1;endArrow=none;endFill=0;entryX=1;entryY=0.5;entryDx=0;entryDy=0;" edge="1" parent="1" target="wo7qAl4Wys5p-9roEDO0-57">
          <mxGeometry relative="1" as="geometry">
            <mxPoint x="980" y="460" as="sourcePoint" />
            <mxPoint x="540" y="680" as="targetPoint" />
            <Array as="points">
              <mxPoint x="980" y="680" />
            </Array>
          </mxGeometry>
        </mxCell>
        <mxCell id="wo7qAl4Wys5p-9roEDO0-73" value="" style="endArrow=classic;html=1;rounded=0;" edge="1" parent="1">
          <mxGeometry width="50" height="50" relative="1" as="geometry">
            <mxPoint x="720" y="670" as="sourcePoint" />
            <mxPoint x="590" y="670" as="targetPoint" />
          </mxGeometry>
        </mxCell>
        <mxCell id="wo7qAl4Wys5p-9roEDO0-74" value="Ask patient to perform&amp;nbsp;&lt;div&gt;more medical exams&lt;/div&gt;" style="edgeLabel;html=1;align=center;verticalAlign=middle;resizable=0;points=[];" vertex="1" connectable="0" parent="wo7qAl4Wys5p-9roEDO0-73">
          <mxGeometry x="-0.4327" relative="1" as="geometry">
            <mxPoint x="-23" y="-20" as="offset" />
          </mxGeometry>
        </mxCell>
        <mxCell id="wo7qAl4Wys5p-9roEDO0-75" style="edgeStyle=none;rounded=0;orthogonalLoop=1;jettySize=auto;html=1;entryX=0;entryY=0.5;entryDx=0;entryDy=0;endArrow=none;endFill=0;" edge="1" parent="1" target="wo7qAl4Wys5p-9roEDO0-57">
          <mxGeometry relative="1" as="geometry">
            <mxPoint x="160" y="460" as="sourcePoint" />
            <mxPoint x="404" y="680" as="targetPoint" />
            <Array as="points">
              <mxPoint x="180" y="580" />
              <mxPoint x="190" y="680" />
            </Array>
          </mxGeometry>
        </mxCell>
        <mxCell id="wo7qAl4Wys5p-9roEDO0-76" value="" style="endArrow=classic;html=1;rounded=0;" edge="1" parent="1">
          <mxGeometry width="50" height="50" relative="1" as="geometry">
            <mxPoint x="400" y="670" as="sourcePoint" />
            <mxPoint x="290" y="670" as="targetPoint" />
          </mxGeometry>
        </mxCell>
        <mxCell id="wo7qAl4Wys5p-9roEDO0-77" value="Receive information" style="edgeLabel;html=1;align=center;verticalAlign=middle;resizable=0;points=[];" vertex="1" connectable="0" parent="wo7qAl4Wys5p-9roEDO0-76">
          <mxGeometry x="-0.4327" relative="1" as="geometry">
            <mxPoint x="-19" y="-10" as="offset" />
          </mxGeometry>
        </mxCell>
      </root>
    </mxGraphModel>
  </diagram>
</mxfile>
